PathFileType	4	(X/Y/Z)	T1_P2_Vision_Movement_0_0-735.trc
DataRate	CameraRate	NumFrames	NumMarkers	Units	OrigDataRate	OrigDataStartFrame	OrigNumFrames
60	60	7	27	m	60	643	735
Frame#	Time	RHip			RKnee			RAnkle			RBigToe			RSmallToe			RHeel			LHip			LKnee			LAnkle			LBigToe			LSmallToe			LHeel			Neck			Head			Nose			RShoulder			RElbow			RWrist			RThumb			RIndex			RPinky			LShoulder			LElbow			LWrist			LThumb			LIndex			LPinky		
		X1	Y1	Z1	X2	Y2	Z2	X3	Y3	Z3	X4	Y4	Z4	X5	Y5	Z5	X6	Y6	Z6	X7	Y7	Z7	X8	Y8	Z8	X9	Y9	Z9	X10	Y10	Z10	X11	Y11	Z11	X12	Y12	Z12	X13	Y13	Z13	X14	Y14	Z14	X15	Y15	Z15	X16	Y16	Z16	X17	Y17	Z17	X18	Y18	Z18	X19	Y19	Z19	X20	Y20	Z20	X21	Y21	Z21	X22	Y22	Z22	X23	Y23	Z23	X24	Y24	Z24	X25	Y25	Z25	X26	Y26	Z26	X27	Y27	Z27
644	10.733333333333333	459.4096238745143	3642.140490528962	604.2045703472448	851.4749255682174	3706.285478542663	643.5675497868576	1221.2641691212493	3727.8183395356023	690.5981759582781	1293.5182637306243	3646.0054450267426	652.8353302808654	1279.0960972867854	3658.8414955723374	593.7147012566614	1296.9719093239862	3805.9960619605067	755.5277560095442	475.9000470528721	3600.669940556602	827.2393547629679	878.5303238625479	3624.6168149425944	840.5522161786184	1241.0029111116498	3683.668786810583	856.64746206466	1300.9996903495528	3529.76617736344	791.0418670507518	1291.0549837918613	3526.897117509809	835.3436854280383	1289.9238071985199	3732.468221713598	865.7873499568399	-115.01301597889027	3589.76760074503	713.3594414918683	-378.88706810853597	3515.5763127421587	651.5569614397464	-233.24947131324365	3427.706867942843	624.5991629107677	-40.92081711447136	3624.114008249515	542.685936904018	212.60455822385734	3709.7032730546216	464.3093170214944	105.83651567554845	3519.3517226563636	401.6515158013671	12.711760435788939	3426.5569677032445	433.32857615827726	43.96339799655714	3436.306435444738	405.907708468787	90.26849168563132	3458.573250507589	402.7161852853844	-20.44099118607872	3553.45603370574	884.1894843812313	234.9612817382881	3530.141203454339	933.4781364458805	493.4735987069129	3496.3281687887884	920.470376229955	592.4024854261253	3463.010047147406	851.1631446508328	607.2649723359323	3426.4754232431274	864.547687196733	603.9739236288402	3403.967508665499	910.0268779060532
645	10.75	460.1705690792015	3639.762834201146	603.2915875123995	850.9372622130359	3706.704894599984	644.6812687641313	1223.3983040011942	3733.4008021573063	694.9295217119686	1298.740039626061	3655.70879943976	660.7926030020299	1274.9540911730749	3649.9828269018303	586.2563160055529	1302.5064506007911	3815.856328125684	763.0974445800512	475.13341738434116	3590.455307590689	821.0133577818217	878.4709090624864	3623.3634151829983	839.6154921938889	1241.9290646281665	3685.2677275363326	859.1889012209112	1300.69272125459	3531.4061028114074	790.3182963726778	1297.3240910372576	3535.152295383125	841.927769124909	1291.204096665609	3736.3498595513884	869.499462593195	-115.17114164930416	3585.227539411504	709.4673827933839	-378.9719467465185	3511.2777204943673	647.9144503842215	-232.38764459950096	3415.7227871525897	615.7737510358315	-41.11306682936748	3624.4342100454805	543.834856885973	212.83999986712544	3707.863077282558	462.8896239923414	103.54902459412631	3511.3846752620757	397.1427182111923	13.660871142384321	3433.4922211583585	438.3387590921022	44.183549042502854	3441.2205591505567	408.5876821512208	91.35661014358115	3461.4186815291355	403.4551735960597	-19.982417746810178	3556.4697121795994	891.7933558747775	234.3767142491911	3527.1134555884964	930.3973823820384	492.3516557531743	3492.4254525020256	916.6287875788025	594.5376410214013	3466.152504678888	854.2828125291029	605.464964755203	3419.8349666191384	859.532787538228	604.3163930670999	3404.6560780268455	911.6700518366562
646	10.766666666666667	459.61184190640046	3639.5249569631155	602.6244391887667	849.8553066303335	3712.987205153401	647.4085417560646	1224.3295743283593	3737.4130206620466	698.1226311569073	1302.4817858040187	3662.3869399983137	666.2805281741612	1274.2600933530948	3649.1464395659964	582.6419989366891	1306.485367185161	3822.168194756433	767.7155928494542	473.96277858382666	3583.1970352159096	816.9938494891951	878.0285098561933	3623.5707618086835	839.4448309845512	1241.1579308147295	3683.052247761819	859.0533728220813	1300.7275233364676	3532.821081633006	789.6211039971514	1299.4010870860034	3538.9022167728103	845.0992361649359	1291.0843829785633	3739.8119398974345	872.0940877218054	-115.01825950006878	3582.3684301991043	706.9715582730845	-378.92257425837164	3508.2033639532137	645.3119329301354	-231.65049567575838	3402.491949864614	608.705790124744	-41.494196536711875	3625.235285805105	546.0791080033401	213.06195911078936	3708.076104679617	463.076808175152	101.23664730781104	3505.812067427984	394.02271650373194	14.760202597547538	3441.6147090731242	441.8845313083493	44.856555989984024	3446.7710912995117	409.63300407041925	92.07329750864616	3463.643713108382	403.2038159748223	-19.66491706797855	3557.6258949346875	896.6304816628747	233.15707523016945	3523.7686646989655	926.9273279213161	491.81877223578	3490.6900636107307	914.9198428851869	596.7534302312911	3467.810893685465	856.3328222277153	604.5285771615517	3416.8988920091733	856.7923762863337	604.0003196083074	3404.7701986099946	912.2521637075563
647	10.783333333333331	458.5172403207067	3639.71385424393	601.1740237524589	851.1897104591579	3722.1771897938743	651.2473020571815	1224.3770158401837	3739.8055231741273	699.9176075257581	1304.1663138662345	3665.2767050214184	668.7085732404153	1276.2209509484608	3652.996187732631	582.6240321385336	1308.6767863706941	3824.93617504519	769.4520750937914	474.4523647050188	3583.139542873231	816.7685034200802	878.0033628708329	3624.42649780681	839.8094415526737	1238.4217874429876	3677.425393815267	854.5068833101548	1300.1976073887217	3532.2417137567168	788.1517837625806	1296.8190850526485	3535.941221617075	841.8540322286539	1290.5856768739477	3740.2074991789987	872.4682962610703	-114.91374497453893	3581.107565114133	705.9183146151577	-378.1592242708638	3505.8246196810987	643.2943684309873	-231.2013771067866	3393.2720021792843	606.616522243856	-41.539552532325104	3628.555938484507	550.7555876037924	213.2140196684887	3709.9924132727874	464.5854202681269	99.71778485085152	3503.5463436537775	392.70793672169907	16.042730401465846	3450.949346289784	445.221079802361	45.05790248994851	3450.994215929886	408.2148937102097	92.005362101147	3462.28621312345	399.7143996590504	-19.50287594869427	3557.875027109231	898.5905988939197	232.2323232948814	3520.543358876122	923.6662237467051	491.718222472004	3490.313311685159	914.5510386235082	599.5999594815912	3469.7274685952016	859.3728191804745	604.2606276558082	3416.397541721782	856.055489793458	603.7140677381751	3403.51332386142	911.266068042424
648	10.8	457.8379377229087	3633.0392179579076	593.9208238279008	856.4335175903984	3731.5575575527164	656.3190706030709	1227.8814420382346	3746.0782665457127	704.6879089254583	1309.5956223775186	3674.6719747483967	676.5050994385874	1274.7684549002522	3647.4240707799668	577.3999990855696	1311.7851270176054	3829.4392630669045	772.6121635399246	477.3628130239902	3584.4434970960815	815.4824868926249	880.2126491356737	3625.2755861879814	840.103959095606	1234.9014826585978	3671.2218720556443	847.558874665838	1297.9321448239955	3528.2314914645003	784.0942903984179	1296.0455759596696	3533.3624921972078	838.0798904213675	1292.7246784816937	3739.9105868050765	873.9990636274713	-114.59461125979165	3577.0473715225226	702.3965557774409	-376.29763296838985	3498.9229922591967	637.3787223604292	-230.42213847250133	3385.6454836677717	604.2321309879876	-41.65596735737644	3637.7441200855105	559.7810449618439	213.20794195121874	3708.6849591821406	463.54667970834635	98.37424169101925	3498.9820729346334	389.1979259662911	17.765915132617295	3464.587805330051	452.7554898529693	42.74780873756657	3455.877532092046	408.37479507325213	92.2247795692107	3456.905785522073	393.6603053553003	-18.83077516040895	3567.227381593657	907.8434453727236	231.66818980405077	3514.4077284141576	917.7785944189607	491.1451461432765	3488.49135025741	912.7705805215312	604.4236160288939	3477.9293659505056	869.3273476529628	603.0702284339013	3412.9581084358465	852.6156884523577	604.2227572544732	3401.5953661467975	909.6227725689337
649	10.816666666666666	457.2900080250728	3618.079766118327	580.4513050540655	862.7366812101899	3738.9320871077216	661.0668688914216	1235.0031551578584	3755.9490450738435	712.4869623358203	1319.3535860937943	3691.661858674301	690.5001207454758	1268.3642585292557	3631.1924761685927	565.7106996983846	1315.195846271838	3835.3885962046043	777.2452231290046	480.5650302496813	3580.400715692026	810.0244676253022	885.161414494828	3626.103773612242	840.2226698820816	1233.1885788014786	3669.167025634072	843.6164684847237	1295.3158009858862	3524.340437318454	779.5321027672285	1300.986686107967	3537.264256909689	839.9784205183324	1297.6135462602979	3742.629825812132	878.5589800174417	-113.85826970485874	3569.914854814617	696.0735583575516	-373.94199340479224	3487.7130137230133	627.9301165579861	-229.20465513408485	3376.8399908502142	598.1611813771116	-42.11143963311737	3649.8595753430736	570.356120916426	213.17044309603665	3702.909626046896	459.03034822868483	96.86193000058867	3490.9553504352316	382.9073588228815	19.262765453731166	3479.386453919922	463.1510840025114	37.7966074722071	3464.053763016282	413.9953720059495	93.26087678262446	3450.4236222758645	388.487465235272	-17.612225786249876	3586.088365923231	925.2713349018936	231.14714922042842	3506.1726990926186	909.938805080755	489.94282144580586	3484.831173002407	909.1908493651133	609.965593961736	3490.8531983999355	884.133382167435	600.737740016664	3405.4995735309903	845.4669740536541	605.1043989205923	3400.7335389493473	908.8804678238425
650	10.833333333333334	456.90858525094535	3606.6338225781774	570.7702526387678	864.7807271265465	3739.9815220497167	661.2278069456686	1239.3676709324961	3760.207738227783	715.9556721675709	1324.0231402073102	3699.8476001461777	697.1794710081524	1264.2705869092101	3622.7822198560552	560.03935807943	1314.2811698288015	3834.8627840951376	777.180764906114	481.4988463536025	3574.9487426189967	805.3780262837379	890.0738998248802	3627.2396745643136	840.6142260883058	1235.0405412318646	3673.836752947451	846.3777206238939	1295.6316622901459	3526.9332603123157	779.8991956285851	1306.157907770698	3543.6424893112317	845.0028960561912	1300.9100032282638	3746.8464912366107	881.9933803871988	-112.9583299330165	3566.918493184079	693.2231066056041	-372.38738798322277	3481.3677143042346	623.3131152912028	-228.55981892462864	3371.5314343418445	594.7836612518629	-42.363853142043475	3655.270374266367	574.8412492928992	213.67561643529913	3699.677605127603	456.6294918430615	96.30906655981731	3487.0588340973704	379.85564151791834	18.74080807992724	3482.4284962924994	466.5229698321763	33.12909783090237	3471.1779550009173	421.120903727082	93.89012972638919	3447.114413401565	387.56054945347864	-16.949755906201307	3597.9674452923055	934.5987405994331	231.29283565640534	3504.0771211754795	908.0474953270266	489.31607660467245	3482.9386788304687	907.3455630878739	612.3583340379269	3496.719526202345	891.5058478870835	599.5428441464438	3400.402736923991	840.6035531074256	605.2554143318463	3401.771360311704	909.7053265732528
